<svg xmlns="http://www.w3.org/2000/svg" xmlns:xlink="http://www.w3.org/1999/xlink" width="500" zoomAndPan="magnify" viewBox="0 0 375 374.999991" height="500" preserveAspectRatio="xMidYMid meet" version="1.0"><defs><clipPath id="31fc491d5f"><path d="M 124 83.734375 L 353.09375 83.734375 L 353.09375 291.195312 L 124 291.195312 Z M 124 83.734375 " clip-rule="nonzero"/></clipPath><clipPath id="59b3c50c81"><path d="M 21.59375 83.734375 L 250 83.734375 L 250 291.195312 L 21.59375 291.195312 Z M 21.59375 83.734375 " clip-rule="nonzero"/></clipPath></defs><g clip-path="url(#31fc491d5f)"><path fill="#004aad" d="M 291.269531 187.523438 C 291.269531 221.960938 263.285156 249.933594 228.839844 249.933594 C 194.351562 249.933594 166.402344 221.960938 166.402344 187.523438 C 166.402344 169.042969 174.4375 152.535156 187.191406 141.105469 L 187.191406 92.148438 C 150.480469 108.203125 124.8125 144.871094 124.777344 187.523438 C 124.820312 244.945312 171.398438 291.570312 228.847656 291.570312 C 286.320312 291.570312 332.882812 244.945312 332.882812 187.523438 L 332.882812 121.210938 L 334.191406 121.210938 C 344.621094 121.210938 353.078125 112.753906 353.078125 102.328125 C 353.070312 91.902344 344.621094 83.445312 334.1875 83.445312 L 309.8125 83.445312 C 299.566406 83.445312 291.265625 91.75 291.265625 101.992188 L 291.265625 187.523438 Z M 291.269531 187.523438 " fill-opacity="1" fill-rule="nonzero"/></g><g clip-path="url(#59b3c50c81)"><path fill="#849bff" d="M 64.546875 83.445312 L 40.777344 83.445312 C 30.351562 83.445312 21.894531 91.902344 21.894531 102.328125 C 21.894531 112.753906 30.351562 121.210938 40.777344 121.210938 L 41.484375 121.210938 L 41.484375 187.523438 C 41.484375 244.945312 88.0625 291.570312 145.519531 291.570312 C 203.035156 291.570312 249.550781 244.945312 249.550781 187.523438 C 249.550781 144.871094 223.894531 108.195312 187.183594 92.148438 L 187.183594 141.089844 C 199.9375 152.542969 207.972656 169.050781 207.972656 187.523438 C 207.972656 221.960938 180.023438 249.933594 145.519531 249.933594 C 111.03125 249.933594 83.097656 221.960938 83.097656 187.523438 L 83.097656 101.992188 C 83.097656 91.75 74.792969 83.445312 64.546875 83.445312 Z M 64.546875 83.445312 " fill-opacity="1" fill-rule="nonzero"/></g></svg>